<svg version="1.1" id="Layer_1" xmlns="http://www.w3.org/2000/svg" xmlns:xlink="http://www.w3.org/1999/xlink" x="0px" y="0px"
	 width="100%" viewBox="0 0 262 229" enable-background="new 0 0 262 229" xml:space="preserve">
<path fill="#000000" opacity="1.000000" stroke="none" 
	d="
M1.000000,86.000000 
	C1.000000,57.333344 1.000000,29.166683 1.000000,1.000019 
	C88.333305,1.000013 175.666611,1.000013 262.999939,1.000006 
	C262.999939,77.333275 262.999939,153.666550 262.999969,229.999878 
	C175.666748,229.999908 88.333496,229.999908 1.000125,229.999954 
	C1.000000,182.166672 1.000000,134.333328 1.000000,86.000000 
M251.043655,107.588837 
	C260.666046,96.320633 262.564514,83.022446 260.454926,69.026970 
	C258.798096,58.034958 253.014954,49.083969 244.467896,41.982132 
	C232.909698,32.378277 219.767426,27.249758 204.970016,31.728153 
	C191.697754,35.744965 178.937790,41.454502 165.920105,46.429394 
	C164.660004,43.509048 163.083923,39.151009 160.954803,35.082363 
	C157.495255,28.471306 158.132141,25.379585 164.546326,20.854742 
	C168.965683,17.737139 170.524826,12.321950 167.772888,8.469481 
	C164.242233,3.526933 160.119675,1.520671 154.233658,5.516133 
	C150.305084,8.182872 147.472870,12.427128 143.950943,15.754707 
	C142.967239,16.684116 141.302902,17.199383 139.903473,17.310915 
	C137.793640,17.479069 135.577042,16.728502 133.520432,17.066288 
	C126.803391,18.169518 120.983337,17.735846 117.818764,10.421589 
	C117.265030,9.141754 115.879158,8.130239 114.697601,7.231414 
	C111.495834,4.795789 107.692596,2.341377 103.914291,4.235548 
	C101.073128,5.659911 98.313377,8.800650 97.232613,11.796169 
	C95.825211,15.696982 98.567879,18.792501 102.017151,21.041447 
	C107.529495,24.635536 108.229530,28.867170 105.101158,34.701027 
	C102.880745,38.841690 101.219948,43.282436 99.464546,47.239437 
	C92.206337,43.808739 84.995705,39.801266 77.356743,36.935589 
	C66.881714,33.005985 56.555706,28.462679 44.595131,30.843798 
	C31.194675,33.511566 20.570690,40.248878 13.111554,51.203648 
	C1.902777,67.665283 1.640674,85.339005 11.308382,102.507767 
	C21.608459,120.799561 43.365532,131.041840 65.220505,123.975426 
	C72.863174,121.504311 80.346481,118.540306 87.562256,115.924736 
	C85.256821,121.760651 82.112534,127.800087 80.541374,134.224258 
	C78.891441,140.970459 78.705574,148.080643 77.959290,155.040253 
	C77.214859,161.982666 78.267448,168.762680 81.053032,175.081558 
	C91.211678,198.125641 109.542938,213.589386 130.031784,226.892120 
	C131.412018,227.788239 134.314514,227.777740 135.755447,226.921204 
	C151.117584,217.789536 164.397919,206.098312 175.328995,192.032196 
	C187.994385,175.734329 191.395218,157.200272 185.936264,137.284500 
	C183.893188,129.830841 181.030029,122.601990 178.597214,115.436813 
	C212.905807,132.332504 232.102112,128.685333 251.043655,107.588837 
z"/>
<path fill="#FBFBFB" opacity="1.000000" stroke="none" 
	d="
M251.011429,107.953087 
	C232.102112,128.685333 212.905807,132.332504 178.597214,115.436813 
	C181.030029,122.601990 183.893188,129.830841 185.936264,137.284500 
	C191.395218,157.200272 187.994385,175.734329 175.328995,192.032196 
	C164.397919,206.098312 151.117584,217.789536 135.755447,226.921204 
	C134.314514,227.777740 131.412018,227.788239 130.031784,226.892120 
	C109.542938,213.589386 91.211678,198.125641 81.053032,175.081558 
	C78.267448,168.762680 77.214859,161.982666 77.959290,155.040253 
	C78.705574,148.080643 78.891441,140.970459 80.541374,134.224258 
	C82.112534,127.800087 85.256821,121.760651 87.562256,115.924736 
	C80.346481,118.540306 72.863174,121.504311 65.220505,123.975426 
	C43.365532,131.041840 21.608459,120.799561 11.308382,102.507767 
	C1.640674,85.339005 1.902777,67.665283 13.111554,51.203648 
	C20.570690,40.248878 31.194675,33.511566 44.595131,30.843798 
	C56.555706,28.462679 66.881714,33.005985 77.356743,36.935589 
	C84.995705,39.801266 92.206337,43.808739 99.464546,47.239437 
	C101.219948,43.282436 102.880745,38.841690 105.101158,34.701027 
	C108.229530,28.867170 107.529495,24.635536 102.017151,21.041447 
	C98.567879,18.792501 95.825211,15.696982 97.232613,11.796169 
	C98.313377,8.800650 101.073128,5.659911 103.914291,4.235548 
	C107.692596,2.341377 111.495834,4.795789 114.697601,7.231414 
	C115.879158,8.130239 117.265030,9.141754 117.818764,10.421589 
	C120.983337,17.735846 126.803391,18.169518 133.520432,17.066288 
	C135.577042,16.728502 137.793640,17.479069 139.903473,17.310915 
	C141.302902,17.199383 142.967239,16.684116 143.950943,15.754707 
	C147.472870,12.427128 150.305084,8.182872 154.233658,5.516133 
	C160.119675,1.520671 164.242233,3.526933 167.772888,8.469481 
	C170.524826,12.321950 168.965683,17.737139 164.546326,20.854742 
	C158.132141,25.379585 157.495255,28.471306 160.954803,35.082363 
	C163.083923,39.151009 164.660004,43.509048 165.920105,46.429394 
	C178.937790,41.454502 191.697754,35.744965 204.970016,31.728153 
	C219.767426,27.249758 232.909698,32.378277 244.467896,41.982132 
	C253.014954,49.083969 258.798096,58.034958 260.454926,69.026970 
	C262.564514,83.022446 260.666046,96.320633 251.011429,107.953087 
M94.992226,116.542870 
	C93.381516,119.636726 91.473717,122.614235 90.208969,125.843575 
	C82.759453,144.864822 80.233131,163.804703 91.824150,182.306107 
	C101.771370,198.183701 115.820099,209.812286 131.189728,220.008881 
	C132.141876,220.640579 134.524445,220.335327 135.485672,219.545822 
	C145.240082,211.533768 155.433746,203.929428 164.350739,195.052078 
	C181.445831,178.032959 186.000198,157.455978 178.863129,134.381561 
	C175.887329,124.760712 171.488815,115.906456 164.865372,108.183517 
	C163.774887,106.912025 163.819473,104.667053 163.339478,102.871979 
	C165.327347,102.885574 167.332565,102.750290 169.295410,102.978836 
	C170.205688,103.084831 171.000351,103.972260 171.903809,104.380775 
	C181.404724,108.676880 190.765488,113.332352 200.455521,117.151260 
	C226.308365,127.339989 251.226501,107.388672 254.712372,84.142700 
	C258.874878,56.384544 233.260941,31.760792 205.869843,37.964012 
	C192.262878,41.045563 179.926025,47.104946 168.170883,54.484066 
	C163.677780,57.304550 162.006531,56.372517 160.299133,51.325298 
	C158.608292,46.327095 156.893600,41.217022 154.265854,36.692356 
	C152.024841,32.833572 151.127167,29.172981 153.125290,25.423410 
	C154.941895,22.014448 157.747513,19.146214 159.908737,15.900829 
	C160.843307,14.497445 161.254013,12.745186 161.902695,11.151407 
	C160.143555,11.255704 157.687607,10.660554 156.752563,11.592073 
	C153.625412,14.707459 150.416534,18.048443 148.435822,21.915987 
	C146.641830,25.418947 144.882584,26.407484 141.494843,24.902075 
	C135.851059,22.394152 130.185410,22.383295 124.569366,24.875483 
	C121.151413,26.392248 119.504074,25.496054 117.562355,22.085787 
	C115.174988,17.892824 111.512726,14.375545 108.087181,10.873694 
	C107.521080,10.294978 105.346809,11.289388 103.915741,11.556795 
	C104.334808,12.809543 104.560745,14.182054 105.238228,15.274552 
	C105.720909,16.052929 106.857147,16.398987 107.622536,17.033506 
	C112.330765,20.936712 115.080788,29.727850 113.150620,34.032799 
	C110.383095,40.205326 107.687378,46.413563 105.133514,52.676895 
	C103.873840,55.766216 102.196747,56.982685 99.062080,55.134125 
	C95.194778,52.853523 91.395424,50.430698 87.396393,48.405647 
	C76.394516,42.834446 65.186249,37.415913 52.643456,36.868614 
	C31.732149,35.956165 13.456858,52.714756 11.173466,74.239487 
	C8.988106,94.840111 23.663309,114.891144 43.590515,119.057243 
	C53.394772,121.106972 62.534828,118.913597 71.334869,115.304413 
	C79.591919,111.917938 87.383263,107.410934 95.512611,103.687561 
	C97.529495,102.763794 100.061050,102.963753 102.356033,102.647171 
	C101.744492,104.831047 101.498405,107.217293 100.429390,109.147850 
	C99.076736,111.590645 97.054420,113.662621 94.992226,116.542870 
z"/>
<path fill="#242322" opacity="1.000000" stroke="none" 
	d="
M95.156578,116.218704 
	C97.054420,113.662621 99.076736,111.590645 100.429390,109.147850 
	C101.498405,107.217293 101.744492,104.831047 102.356033,102.647171 
	C100.061050,102.963753 97.529495,102.763794 95.512611,103.687561 
	C87.383263,107.410934 79.591919,111.917938 71.334869,115.304413 
	C62.534828,118.913597 53.394772,121.106972 43.590515,119.057243 
	C23.663309,114.891144 8.988106,94.840111 11.173466,74.239487 
	C13.456858,52.714756 31.732149,35.956165 52.643456,36.868614 
	C65.186249,37.415913 76.394516,42.834446 87.396393,48.405647 
	C91.395424,50.430698 95.194778,52.853523 99.062080,55.134125 
	C102.196747,56.982685 103.873840,55.766216 105.133514,52.676895 
	C107.687378,46.413563 110.383095,40.205326 113.150620,34.032799 
	C115.080788,29.727850 112.330765,20.936712 107.622536,17.033506 
	C106.857147,16.398987 105.720909,16.052929 105.238228,15.274552 
	C104.560745,14.182054 104.334808,12.809543 103.915741,11.556797 
	C105.346809,11.289388 107.521080,10.294978 108.087181,10.873694 
	C111.512726,14.375545 115.174988,17.892824 117.562355,22.085787 
	C119.504074,25.496054 121.151413,26.392248 124.569366,24.875483 
	C130.185410,22.383295 135.851059,22.394152 141.494843,24.902075 
	C144.882584,26.407484 146.641830,25.418947 148.435822,21.915987 
	C150.416534,18.048443 153.625412,14.707459 156.752563,11.592073 
	C157.687607,10.660554 160.143555,11.255704 161.902695,11.151407 
	C161.254013,12.745186 160.843307,14.497445 159.908737,15.900829 
	C157.747513,19.146214 154.941895,22.014448 153.125290,25.423410 
	C151.127167,29.172981 152.024841,32.833572 154.265854,36.692356 
	C156.893600,41.217022 158.608292,46.327095 160.299133,51.325298 
	C162.006531,56.372517 163.677780,57.304550 168.170883,54.484066 
	C179.926025,47.104946 192.262878,41.045563 205.869843,37.964012 
	C233.260941,31.760792 258.874878,56.384544 254.712372,84.142700 
	C251.226501,107.388672 226.308365,127.339989 200.455521,117.151260 
	C190.765488,113.332352 181.404724,108.676880 171.903809,104.380775 
	C171.000351,103.972260 170.205688,103.084831 169.295410,102.978836 
	C167.332565,102.750290 165.327347,102.885574 163.339478,102.871979 
	C163.819473,104.667053 163.774887,106.912025 164.865372,108.183517 
	C171.488815,115.906456 175.887329,124.760712 178.863129,134.381561 
	C186.000198,157.455978 181.445831,178.032959 164.350739,195.052078 
	C155.433746,203.929428 145.240082,211.533768 135.485672,219.545822 
	C134.524445,220.335327 132.141876,220.640579 131.189728,220.008881 
	C115.820099,209.812286 101.771370,198.183701 91.824150,182.306107 
	C80.233131,163.804703 82.759453,144.864822 90.208969,125.843575 
	C91.473717,122.614235 93.381516,119.636726 95.156578,116.218704 
M106.347145,187.908539 
	C113.988213,194.765366 121.691124,201.555130 129.237976,208.514130 
	C132.009003,211.069351 134.246643,210.778839 136.853256,208.368500 
	C144.507889,201.290146 152.257553,194.314545 160.807632,187.399368 
	C162.698196,185.902176 164.588776,184.404984 166.479355,182.907791 
	C164.977097,181.401291 163.730637,179.075317 161.933258,178.514313 
	C142.743423,172.524719 123.426102,172.613571 104.221420,178.413940 
	C102.393478,178.966034 99.987549,181.574799 99.959862,183.263336 
	C99.907539,186.454117 102.510475,188.015930 106.347145,187.908539 
M163.932022,121.548546 
	C160.926117,118.042206 158.299820,114.091461 154.830338,111.127815 
	C148.772324,105.953011 142.079071,101.528419 135.896317,96.489670 
	C133.588043,94.608482 132.218674,94.684837 129.996246,96.518768 
	C124.484215,101.067276 118.464241,105.023994 113.144402,109.774033 
	C109.016151,113.460098 105.636932,117.985054 101.482216,122.443031 
	C100.713745,122.727753 99.579697,122.786713 99.240250,123.336380 
	C97.791451,125.682419 95.126823,128.502686 95.589424,130.540787 
	C96.465439,134.400223 99.898384,132.503769 102.573318,131.698547 
	C122.960091,125.561646 143.351044,125.591240 163.713974,131.844650 
	C166.234985,132.618851 169.533356,134.188263 170.266205,130.517258 
	C170.697723,128.355667 168.648041,125.559586 167.330093,123.270020 
	C166.917435,122.553139 165.252136,122.557312 163.932022,121.548546 
M117.339409,64.773392 
	C122.520775,69.121407 127.702133,73.469421 132.938812,77.863846 
	C139.374191,72.509773 145.739441,67.260849 152.022980,61.915833 
	C152.670090,61.365364 153.231232,60.202335 153.152130,59.389725 
	C152.459488,52.272331 151.337921,45.273468 145.970657,39.120140 
	C146.205551,32.439213 138.275650,26.741182 130.975296,28.345230 
	C119.063469,30.962521 107.436867,48.647785 109.879990,60.729992 
	C110.634384,64.460785 113.030899,66.100410 117.339409,64.773392 
M173.281448,160.418839 
	C173.306656,157.777832 173.166046,155.122604 173.390976,152.498734 
	C173.885651,146.728500 170.942856,143.403442 165.800919,141.872604 
	C159.314072,139.941315 152.831161,137.528961 146.177017,136.721863 
	C130.764313,134.852402 115.400093,135.125397 100.067749,141.915268 
	C96.443214,142.921219 91.236252,141.768326 90.295937,146.902359 
	C88.788933,155.130402 88.978561,163.404404 92.375252,171.345123 
	C93.844193,174.779190 95.902397,175.680252 99.440048,174.277603 
	C102.809883,172.941513 106.328323,171.809052 109.885597,171.145447 
	C128.775772,167.621429 147.500854,167.658203 165.883728,174.158157 
	C171.131424,176.013687 172.881577,174.742065 173.089966,169.147659 
	C173.188721,166.496185 173.013489,163.834503 173.281448,160.418839 
M111.678230,81.483154 
	C112.279007,80.974136 112.879784,80.465111 114.069839,79.717796 
	C113.627151,78.472153 113.559135,76.776321 112.685135,76.048904 
	C101.006340,66.328842 88.559700,57.670570 74.418411,51.984318 
	C67.417374,49.169189 59.857548,47.743721 51.874146,45.303802 
	C49.699100,42.525265 46.870537,42.544941 43.815632,43.372944 
	C31.951681,46.588551 23.503021,53.855377 19.133690,65.286064 
	C13.924353,78.914307 16.230722,91.739342 25.931129,102.493629 
	C35.323895,112.906845 47.296860,116.824623 61.183510,112.931458 
	C78.686180,108.024506 94.150993,99.151169 108.234146,87.864876 
	C109.929832,86.505951 110.193886,83.360611 111.013985,81.002411 
	C111.013985,81.002411 110.975403,81.110741 111.678230,81.483154 
M213.695969,45.443855 
	C211.241608,45.874077 208.744598,46.139175 206.339645,46.760624 
	C187.060608,51.742451 170.695618,62.167965 155.275345,74.308678 
	C150.489716,78.076515 150.541916,78.142815 155.205536,82.673439 
	C157.055511,85.254517 158.357300,88.722992 160.850342,90.263107 
	C171.660828,96.941444 182.481110,103.788078 193.978119,109.101570 
	C200.826126,112.266472 208.989944,114.292076 216.467834,114.039185 
	C233.238953,113.472015 246.723907,99.973656 248.996552,83.578316 
	C251.328552,66.754776 241.970291,50.610577 226.100540,44.656906 
	C222.275284,43.221825 217.883545,40.966148 213.695969,45.443855 
z"/>
<path fill="#F9CC16" opacity="1.000000" stroke="none" 
	d="
M155.140625,81.943695 
	C150.541916,78.142815 150.489716,78.076515 155.275345,74.308678 
	C170.695618,62.167965 187.060608,51.742451 206.339645,46.760624 
	C208.744598,46.139175 211.241608,45.874077 214.205200,45.982552 
	C216.673416,48.183651 218.434586,50.189228 220.624222,51.451561 
	C232.848663,58.498928 238.319748,73.476425 233.166107,86.299149 
	C228.008530,99.131676 214.366241,105.824760 200.505280,102.121544 
	C187.833466,98.736031 176.687561,92.197060 165.689316,85.250008 
	C162.678284,83.348083 158.683807,83.003136 155.140625,81.943695 
z"/>
<path fill="#F9CC16" opacity="1.000000" stroke="none" 
	d="
M52.550541,45.689522 
	C59.857548,47.743721 67.417374,49.169189 74.418411,51.984318 
	C88.559700,57.670570 101.006340,66.328842 112.685135,76.048904 
	C113.559135,76.776321 113.627151,78.472153 113.410660,79.862442 
	C112.159454,80.374969 111.567429,80.742859 110.975403,81.110741 
	C110.975403,81.110741 111.013985,81.002411 110.656570,81.011627 
	C106.862625,82.429596 103.329773,83.643173 100.007263,85.282951 
	C89.192093,90.620636 78.637878,96.531853 67.615784,101.388420 
	C61.171894,104.227745 54.030544,104.521698 47.305447,101.204689 
	C37.642899,96.438850 31.767736,88.913208 31.038498,77.962982 
	C30.238825,65.955093 35.796700,57.349762 45.775482,51.138309 
	C48.218006,49.617916 50.301811,47.521244 52.550541,45.689522 
z"/>
<path fill="#FDFCFB" opacity="1.000000" stroke="none" 
	d="
M52.212341,45.496662 
	C50.301811,47.521244 48.218006,49.617916 45.775482,51.138309 
	C35.796700,57.349762 30.238825,65.955093 31.038498,77.962982 
	C31.767736,88.913208 37.642899,96.438850 47.305447,101.204689 
	C54.030544,104.521698 61.171894,104.227745 67.615784,101.388420 
	C78.637878,96.531853 89.192093,90.620636 100.007263,85.282951 
	C103.329773,83.643173 106.862625,82.429596 110.710327,81.032051 
	C110.193886,83.360611 109.929832,86.505951 108.234146,87.864876 
	C94.150993,99.151169 78.686180,108.024506 61.183510,112.931458 
	C47.296860,116.824623 35.323895,112.906845 25.931129,102.493629 
	C16.230722,91.739342 13.924353,78.914307 19.133690,65.286064 
	C23.503021,53.855377 31.951681,46.588551 43.815632,43.372944 
	C46.870537,42.544941 49.699100,42.525265 52.212341,45.496662 
M23.005524,77.675140 
	C23.006716,86.289749 26.442291,94.783775 30.070040,96.603119 
	C27.793119,89.318489 25.344824,81.485565 23.137350,74.423119 
	C23.128048,74.590439 23.066786,75.692459 23.005524,77.675140 
M35.448902,102.906532 
	C35.842220,102.786964 36.235538,102.667397 36.628857,102.547821 
	C36.526203,102.345901 36.407459,101.964417 36.323570,101.971931 
	C35.865871,102.012932 35.416748,102.149628 35.448902,102.906532 
z"/>
<path fill="#FDFCFA" opacity="1.000000" stroke="none" 
	d="
M155.173080,82.308563 
	C158.683807,83.003136 162.678284,83.348083 165.689316,85.250008 
	C176.687561,92.197060 187.833466,98.736031 200.505280,102.121544 
	C214.366241,105.824760 228.008530,99.131676 233.166107,86.299149 
	C238.319748,73.476425 232.848663,58.498928 220.624222,51.451561 
	C218.434586,50.189228 216.673416,48.183651 214.584824,46.160294 
	C217.883545,40.966148 222.275284,43.221825 226.100540,44.656906 
	C241.970291,50.610577 251.328552,66.754776 248.996552,83.578316 
	C246.723907,99.973656 233.238953,113.472015 216.467834,114.039185 
	C208.989944,114.292076 200.826126,112.266472 193.978119,109.101570 
	C182.481110,103.788078 171.660828,96.941444 160.850342,90.263107 
	C158.357300,88.722992 157.055511,85.254517 155.173080,82.308563 
M241.467117,79.032669 
	C239.530273,85.115990 237.593414,91.199318 235.386337,98.131393 
	C241.422516,90.824417 243.633591,83.228119 241.962509,74.561729 
	C241.962509,75.819710 241.962509,77.077682 241.467117,79.032669 
M229.798370,101.839218 
	C229.722427,102.145164 229.646500,102.451103 229.570557,102.757034 
	C229.957108,102.727730 230.343643,102.698418 230.730194,102.669113 
	C230.676804,102.301788 230.623428,101.934464 229.798370,101.839218 
z"/>
<path fill="#FDFCFB" opacity="1.000000" stroke="none" 
	d="
M172.962402,161.177444 
	C173.013489,163.834503 173.188721,166.496185 173.089966,169.147659 
	C172.881577,174.742065 171.131424,176.013687 165.883728,174.158157 
	C147.500854,167.658203 128.775772,167.621429 109.885597,171.145447 
	C106.328323,171.809052 102.809883,172.941513 99.440048,174.277603 
	C95.902397,175.680252 93.844193,174.779190 92.375252,171.345123 
	C88.978561,163.404404 88.788933,155.130402 90.295937,146.902359 
	C91.236252,141.768326 96.443214,142.921219 100.883652,141.917664 
	C115.509537,139.531204 129.419342,138.881119 143.235825,141.214355 
	C155.960266,143.363159 167.745026,147.551270 172.962402,161.177444 
M126.830910,162.029968 
	C140.343552,162.313080 153.799133,163.003052 166.974289,167.739105 
	C167.104523,161.803955 164.918564,157.044327 160.007263,154.080383 
	C152.281601,149.417999 143.890305,146.749161 134.691299,146.973129 
	C127.859093,147.139435 121.004837,146.727356 114.187714,147.088470 
	C108.102684,147.410828 102.055084,148.439621 95.520523,149.212326 
	C96.095383,155.778732 96.614609,161.709686 97.085403,167.087341 
	C107.375893,165.447372 116.692780,163.962585 126.830910,162.029968 
z"/>
<path fill="#F7CB16" opacity="1.000000" stroke="none" 
	d="
M145.872818,39.926514 
	C151.337921,45.273468 152.459488,52.272331 153.152130,59.389725 
	C153.231232,60.202335 152.670090,61.365364 152.022980,61.915833 
	C145.739441,67.260849 139.374191,72.509773 132.938812,77.863846 
	C127.702133,73.469421 122.520775,69.121407 117.290024,64.171783 
	C118.973595,58.096851 120.027733,52.278759 122.592903,47.228107 
	C126.819565,38.906097 132.783676,36.912369 141.493332,39.450974 
	C142.881439,39.855568 144.409470,39.780064 145.872818,39.926514 
z"/>
<path fill="#F5CA17" opacity="1.000000" stroke="none" 
	d="
M101.924774,122.137131 
	C105.636932,117.985054 109.016151,113.460098 113.144402,109.774033 
	C118.464241,105.023994 124.484215,101.067276 129.996246,96.518768 
	C132.218674,94.684837 133.588043,94.608482 135.896317,96.489670 
	C142.079071,101.528419 148.772324,105.953011 154.830338,111.127815 
	C158.299820,114.091461 160.926117,118.042206 163.612076,121.871613 
	C154.227280,121.037300 145.153519,118.890526 136.099854,118.972183 
	C124.699570,119.074997 113.315712,120.998947 101.924774,122.137131 
z"/>
<path fill="#F6CB16" opacity="1.000000" stroke="none" 
	d="
M159.970016,187.298721 
	C152.257553,194.314545 144.507889,201.290146 136.853256,208.368500 
	C134.246643,210.778839 132.009003,211.069351 129.237976,208.514130 
	C121.691124,201.555130 113.988213,194.765366 106.502327,187.503632 
	C124.445015,182.720840 142.216293,182.669296 159.970016,187.298721 
z"/>
<path fill="#FBFBF9" opacity="1.000000" stroke="none" 
	d="
M101.703491,122.290085 
	C113.315712,120.998947 124.699570,119.074997 136.099854,118.972183 
	C145.153519,118.890526 154.227280,121.037300 163.726166,122.213058 
	C165.252136,122.557312 166.917435,122.553139 167.330093,123.270020 
	C168.648041,125.559586 170.697723,128.355667 170.266205,130.517258 
	C169.533356,134.188263 166.234985,132.618851 163.713974,131.844650 
	C143.351044,125.591240 122.960091,125.561646 102.573318,131.698547 
	C99.898384,132.503769 96.465439,134.400223 95.589424,130.540787 
	C95.126823,128.502686 97.791451,125.682419 99.240250,123.336380 
	C99.579697,122.786713 100.713745,122.727753 101.703491,122.290085 
z"/>
<path fill="#FBFBF9" opacity="1.000000" stroke="none" 
	d="
M160.388824,187.349045 
	C142.216293,182.669296 124.445015,182.720840 106.280136,187.279724 
	C102.510475,188.015930 99.907539,186.454117 99.959862,183.263336 
	C99.987549,181.574799 102.393478,178.966034 104.221420,178.413940 
	C123.426102,172.613571 142.743423,172.524719 161.933258,178.514313 
	C163.730637,179.075317 164.977097,181.401291 166.479355,182.907791 
	C164.588776,184.404984 162.698196,185.902176 160.388824,187.349045 
z"/>
<path fill="#FCFCFA" opacity="1.000000" stroke="none" 
	d="
M145.921738,39.523327 
	C144.409470,39.780064 142.881439,39.855568 141.493332,39.450974 
	C132.783676,36.912369 126.819565,38.906097 122.592903,47.228107 
	C120.027733,52.278759 118.973595,58.096851 117.065704,63.936600 
	C113.030899,66.100410 110.634384,64.460785 109.879990,60.729992 
	C107.436867,48.647785 119.063469,30.962521 130.975296,28.345230 
	C138.275650,26.741182 146.205551,32.439213 145.921738,39.523327 
z"/>
<path fill="#EEC719" opacity="1.000000" stroke="none" 
	d="
M173.121918,160.798141 
	C167.745026,147.551270 155.960266,143.363159 143.235825,141.214355 
	C129.419342,138.881119 115.509537,139.531204 101.278381,141.862213 
	C115.400093,135.125397 130.764313,134.852402 146.177017,136.721863 
	C152.831161,137.528961 159.314072,139.941315 165.800919,141.872604 
	C170.942856,143.403442 173.885651,146.728500 173.390976,152.498734 
	C173.166046,155.122604 173.306656,157.777832 173.121918,160.798141 
z"/>
<path fill="#FDFCFB" opacity="1.000000" stroke="none" 
	d="
M111.326813,81.296951 
	C111.567429,80.742859 112.159454,80.374969 113.116013,79.981583 
	C112.879784,80.465111 112.279007,80.974136 111.326813,81.296951 
z"/>
<path fill="#000000" opacity="1.000000" stroke="none" 
	d="
M23.005524,77.234810 
	C23.066786,75.692459 23.128048,74.590439 23.137350,74.423119 
	C25.344824,81.485565 27.793119,89.318489 30.070040,96.603119 
	C26.442291,94.783775 23.006716,86.289749 23.005524,77.234810 
z"/>
<path fill="#000000" opacity="1.000000" stroke="none" 
	d="
M35.206787,102.579971 
	C35.416748,102.149628 35.865871,102.012932 36.323570,101.971931 
	C36.407459,101.964417 36.526203,102.345901 36.628857,102.547821 
	C36.235538,102.667397 35.842220,102.786964 35.206787,102.579971 
z"/>
<path fill="#000000" opacity="1.000000" stroke="none" 
	d="
M241.714813,78.684166 
	C241.962509,77.077682 241.962509,75.819710 241.962509,74.561729 
	C243.633591,83.228119 241.422516,90.824417 235.386337,98.131393 
	C237.593414,91.199318 239.530273,85.115990 241.714813,78.684166 
z"/>
<path fill="#000000" opacity="1.000000" stroke="none" 
	d="
M230.184204,101.703178 
	C230.623428,101.934464 230.676804,102.301788 230.730194,102.669113 
	C230.343643,102.698418 229.957108,102.727730 229.570557,102.757034 
	C229.646500,102.451103 229.722427,102.145164 230.184204,101.703178 
z"/>
<path fill="#000000" opacity="1.000000" stroke="none" 
	d="
M126.420288,162.253876 
	C116.692780,163.962585 107.375893,165.447372 97.085403,167.087341 
	C96.614609,161.709686 96.095383,155.778732 95.520523,149.212326 
	C102.055084,148.439621 108.102684,147.410828 114.187714,147.088470 
	C121.004837,146.727356 127.859093,147.139435 134.691299,146.973129 
	C143.890305,146.749161 152.281601,149.417999 160.007263,154.080383 
	C164.918564,157.044327 167.104523,161.803955 166.974289,167.739105 
	C153.799133,163.003052 140.343552,162.313080 126.420288,162.253876 
z"/>
</svg>