<?xml version="1.0" standalone="no"?>
<!DOCTYPE svg PUBLIC "-//W3C//DTD SVG 20010904//EN"
 "http://www.w3.org/TR/2001/REC-SVG-20010904/DTD/svg10.dtd">
<svg version="1.0" xmlns="http://www.w3.org/2000/svg"
 width="468.000000pt" height="396.000000pt" viewBox="0 0 468.000000 396.000000"
 preserveAspectRatio="xMidYMid meet">
<metadata>
Created by potrace 1.10, written by Peter Selinger 2001-2011
</metadata>
<g transform="translate(0.000000,396.000000) scale(0.100000,-0.100000)"
fill="#ffcc00" stroke="none">
<path d="M1577 3382 c-42 -46 7 -120 81 -124 58 -3 114 2 148 13 41 13 83 -6
153 -69 l54 -49 -60 -46 c-34 -26 -80 -68 -103 -94 -48 -54 -110 -177 -117
-234 l-5 -38 78 -36 c152 -71 350 -205 486 -331 26 -24 50 -44 53 -44 3 0 27
19 53 43 146 134 312 248 476 326 l88 43 -5 37 c-2 20 -21 72 -41 115 -37 79
-110 163 -200 230 l-39 30 44 39 c24 21 61 50 83 64 35 22 43 24 80 14 43 -11
87 -15 148 -12 75 3 126 82 80 124 -24 22 -102 22 -162 0 -51 -19 -188 -105
-240 -151 -63 -56 -70 -58 -162 -31 -67 19 -106 24 -203 24 -97 0 -136 -5
-203 -24 -92 -27 -98 -25 -162 31 -153 134 -351 208 -403 150z"/>
<path d="M1183 2630 c-197 -42 -363 -175 -456 -364 -26 -51 -47 -101 -47 -109
0 -9 -7 -42 -15 -74 -27 -103 -13 -239 37 -373 55 -146 184 -292 317 -358 118
-59 206 -76 360 -69 69 3 135 9 146 12 30 8 44 -6 60 -66 35 -121 59 -193 75
-221 6 -10 10 -23 10 -29 0 -16 87 -192 137 -277 97 -163 229 -316 366 -421
107 -82 162 -112 186 -103 30 11 96 55 177 118 121 94 256 252 347 406 54 91
137 261 137 280 0 8 4 18 8 24 12 13 72 193 86 255 8 35 25 40 93 28 88 -17
295 -6 366 19 199 72 335 203 414 402 28 70 53 186 53 249 0 156 -78 353 -187
471 -78 84 -149 132 -256 173 -80 31 -86 31 -247 31 -137 0 -177 -4 -235 -21
-198 -58 -384 -161 -563 -312 -81 -68 -81 -70 -16 -140 31 -34 61 -61 68 -61
6 0 45 28 86 63 212 176 424 274 620 284 114 6 187 -7 271 -49 118 -59 221
-198 250 -335 15 -75 6 -203 -20 -271 -74 -197 -249 -320 -456 -322 -134 0
-322 58 -450 140 -16 11 -37 23 -45 27 -8 4 -60 41 -115 82 -99 75 -225 196
-392 377 -239 260 -506 438 -773 516 -74 21 -327 33 -397 18z m377 -215 c113
-36 255 -111 365 -193 86 -64 232 -204 453 -434 118 -123 212 -204 338 -292
89 -62 110 -89 77 -99 -10 -3 -43 -15 -73 -27 -92 -36 -150 -50 -273 -65 -102
-13 -133 -13 -240 0 -67 8 -142 21 -167 29 -68 21 -160 68 -160 83 0 12 10 21
145 116 44 31 104 79 134 105 61 55 61 51 -11 131 -48 53 -76 63 -99 34 -16
-18 -196 -156 -219 -166 -8 -4 -28 -16 -45 -27 -46 -29 -155 -81 -205 -97
-247 -80 -452 -44 -588 102 -96 103 -142 215 -142 344 0 215 129 399 328 468
95 33 258 28 382 -12z m1330 -1234 c0 -17 -4 -33 -10 -36 -5 -3 -10 -13 -10
-22 0 -14 -9 -39 -50 -128 -16 -36 -25 -43 -93 -68 -161 -59 -219 -70 -397
-70 -147 0 -175 3 -260 26 -126 35 -142 40 -161 52 -20 13 -89 158 -89 188 0
9 -4 19 -10 22 -11 7 -14 49 -2 43 4 -2 21 -10 37 -17 17 -7 48 -22 71 -32 22
-10 85 -31 140 -46 89 -24 116 -27 264 -28 125 0 184 4 245 18 90 21 210 66
270 101 52 31 55 31 55 -3z m-314 -578 c-22 -43 -208 -213 -233 -213 -13 0
-191 158 -216 192 -12 15 -18 30 -15 33 3 3 40 0 84 -6 81 -12 278 -6 344 10
19 5 38 9 43 10 4 1 1 -11 -7 -26z"/>
</g>
</svg>
